<?xml version="1.0" encoding="utf-8"?>
<!-- Generator: Adobe Illustrator 16.0.0, SVG Export Plug-In . SVG Version: 6.00 Build 0)  -->
<!DOCTYPE svg PUBLIC "-//W3C//DTD SVG 1.1//EN" "http://www.w3.org/Graphics/SVG/1.1/DTD/svg11.dtd">
<svg version="1.1" id="Layer_1" xmlns="http://www.w3.org/2000/svg" xmlns:xlink="http://www.w3.org/1999/xlink" x="0px" y="0px"
	 width="300px" height="100px" viewBox="0 0 300 100" enable-background="new 0 0 300 100" xml:space="preserve">
<path fill="#3393FF" d="M293.333,15.172c0,3.264-2.646,5.911-5.911,5.911h-43.349c-3.265,0-5.911-2.647-5.911-5.911V5.911
	c0-3.264,2.646-5.911,5.911-5.911h43.349c3.265,0,5.911,2.647,5.911,5.911V15.172z"/>
<path d="M129.892,55.705v6.331c-0.699,0.491-1.467,0.872-2.306,1.137c-0.841,0.269-1.629,0.462-2.367,0.583
	c-0.862,0.164-1.722,0.248-2.582,0.248c-1.394,0-2.613-0.145-3.658-0.432c-1.045-0.286-1.947-0.664-2.705-1.139
	c-0.76-0.472-1.383-1.015-1.875-1.627c-0.492-0.617-0.902-1.25-1.23-1.904c-0.737-1.479-1.127-3.178-1.167-5.104V33.637h-4.794
	v-5.285c0.573-0.083,1.167-0.216,1.783-0.4c0.614-0.185,1.25-0.481,1.904-0.892c1.107-0.696,1.987-1.536,2.645-2.521
	c0.654-0.982,1.157-1.935,1.504-2.857c0.349-0.921,0.573-1.74,0.677-2.458c0.101-0.717,0.153-1.177,0.153-1.383h5.04
	c0.041,1.599,0.063,3.206,0.063,4.825c0,1.62,0.02,3.228,0.062,4.826h8.481v6.146h-8.42c0.124,11.188,0.185,17.766,0.185,19.73
	c0,0.248,0.042,0.616,0.123,1.106c0.082,0.49,0.329,0.94,0.739,1.354c0.45,0.488,1.044,0.777,1.783,0.859
	c0.737,0.082,1.484,0.082,2.243,0c0.758-0.082,1.476-0.235,2.153-0.461C128.999,56.003,129.521,55.828,129.892,55.705z"/>
<rect x="135.238" y="12" fill="#0078FF" width="10.511" height="8.114"/>
<rect x="136.037" y="27.306" width="8.913" height="36.206"/>
<path d="M169.846,57.117c2.582,0,4.674-0.809,6.271-2.428c1.598-1.617,2.66-3.656,3.193-6.115l7.254,0.798
	c-0.367,2.09-0.994,4.028-1.875,5.808c-0.883,1.784-2.051,3.321-3.504,4.611c-1.455,1.29-3.178,2.305-5.162,3.043
	c-1.988,0.736-4.271,1.105-6.854,1.105c-2.664,0-5.093-0.473-7.289-1.412c-2.192-0.943-4.088-2.254-5.676-3.938
	c-1.587-1.68-2.827-3.654-3.714-5.933c-0.891-2.274-1.33-4.742-1.33-7.406c0-2.582,0.439-5.02,1.33-7.315
	c0.887-2.294,2.135-4.282,3.742-5.962c1.608-1.679,3.515-3.011,5.707-3.995c2.197-0.983,4.604-1.475,7.229-1.475
	c2.417,0,4.62,0.389,6.604,1.167c1.988,0.78,3.729,1.855,5.228,3.228s2.728,2.991,3.688,4.855c0.963,1.865,1.606,3.883,1.938,6.054
	l-7.189,0.677c-0.41-2.746-1.438-4.958-3.074-6.64c-1.639-1.679-3.813-2.52-6.519-2.52c-1.682,0-3.133,0.297-4.36,0.892
	c-1.229,0.593-2.27,1.424-3.104,2.489c-0.84,1.066-1.466,2.316-1.875,3.749c-0.409,1.437-0.614,3.013-0.614,4.734
	c0,1.681,0.227,3.248,0.678,4.702c0.449,1.457,1.105,2.714,1.967,3.78c0.859,1.065,1.904,1.906,3.136,2.521
	C166.896,56.811,168.287,57.117,169.846,57.117z"/>
<path d="M206.05,48.083l-4.795,4.978v10.451h-9.034V14.644h9.034v28.644l14.69-16.289h10.328l-14.752,16.167l15.732,20.346H216.93
	L206.05,48.083z"/>
<path d="M263.277,45.317c0,0.328,0,0.635,0,0.921c0,0.286-0.021,0.574-0.063,0.86h-26.802c0.327,2.951,1.332,5.308,3.012,7.069
	c1.683,1.763,3.995,2.644,6.946,2.644c2.337,0,4.201-0.521,5.595-1.565c1.396-1.044,2.498-2.554,3.318-4.519l7.067,0.981
	c-0.492,1.844-1.229,3.515-2.213,5.01c-0.981,1.497-2.191,2.788-3.627,3.872c-1.435,1.088-3.094,1.928-4.979,2.521
	c-1.885,0.593-3.954,0.893-6.208,0.893c-2.46,0-4.773-0.422-6.945-1.261c-2.173-0.841-4.058-2.062-5.655-3.657
	c-1.599-1.6-2.867-3.555-3.813-5.871c-0.939-2.314-1.411-4.949-1.411-7.898c0-2.787,0.459-5.337,1.382-7.654
	c0.924-2.314,2.201-4.292,3.842-5.931c1.639-1.639,3.559-2.909,5.748-3.812c2.19-0.901,4.561-1.351,7.1-1.351
	c2.949,0,5.533,0.49,7.746,1.474c2.215,0.983,4.058,2.315,5.531,3.995c1.477,1.682,2.582,3.657,3.318,5.933
	C262.909,40.245,263.277,42.694,263.277,45.317z M255.227,41.566c-0.451-2.458-1.455-4.497-3.014-6.115
	c-1.557-1.619-3.646-2.429-6.27-2.429c-2.704,0-4.825,0.811-6.36,2.429c-1.537,1.619-2.532,3.657-2.983,6.115H255.227z"/>
<path d="M292.967,33.699c-0.244-0.041-0.736-0.082-1.476-0.123c-0.737-0.041-1.599,0.011-2.58,0.154
	c-0.985,0.143-2.052,0.44-3.198,0.89c-1.146,0.452-2.254,1.128-3.318,2.03c-0.98,0.86-1.729,1.741-2.244,2.643
	c-0.514,0.902-0.892,1.659-1.137,2.274v21.945h-9.098V26.999h8.79v7.314c0.205-0.574,0.634-1.424,1.29-2.551
	c0.654-1.126,1.661-2.183,3.012-3.166c1.066-0.778,2.143-1.312,3.229-1.598c1.084-0.287,2.091-0.44,3.012-0.461
	c0.923-0.02,1.711,0.031,2.367,0.153c0.655,0.123,1.106,0.206,1.353,0.246L292.967,33.699L292.967,33.699z"/>
<g>
	<rect x="114.107" y="73.105" fill="none" width="131.284" height="18.272"/>
	<path fill="#0078FF" d="M125.793,83.418c0,0.464-0.11,0.907-0.33,1.33c-0.221,0.424-0.534,0.798-0.939,1.122
		c-0.406,0.323-0.896,0.582-1.469,0.772c-0.574,0.189-1.215,0.287-1.921,0.287h-6.243V73.107h6.869c0.452,0,0.881,0.099,1.287,0.295
		c0.406,0.197,0.762,0.461,1.069,0.791c0.307,0.33,0.553,0.707,0.739,1.131c0.186,0.423,0.278,0.865,0.278,1.33
		c0,0.754-0.211,1.402-0.635,1.947s-0.982,0.957-1.678,1.231c0.44,0.142,0.843,0.302,1.208,0.485
		c0.365,0.187,0.678,0.414,0.939,0.688c0.261,0.272,0.463,0.604,0.608,0.991C125.721,82.391,125.793,82.861,125.793,83.418z
		 M117.343,75.455v3.479h3.617c0.266,0,0.501-0.047,0.704-0.141c0.203-0.093,0.374-0.217,0.513-0.374
		c0.139-0.155,0.241-0.339,0.304-0.548c0.064-0.208,0.096-0.423,0.096-0.643c0-0.209-0.029-0.42-0.087-0.638
		c-0.058-0.215-0.151-0.403-0.278-0.571c-0.128-0.168-0.296-0.307-0.504-0.408c-0.209-0.104-0.458-0.156-0.748-0.156H117.343
		L117.343,75.455z M123.115,82.861c0-0.231-0.038-0.454-0.113-0.67c-0.076-0.213-0.18-0.404-0.313-0.573
		c-0.133-0.167-0.296-0.302-0.487-0.399c-0.191-0.099-0.403-0.146-0.635-0.146h-4.208v3.512h4.086c0.544,0,0.959-0.174,1.243-0.521
		C122.973,83.714,123.115,83.314,123.115,82.861z"/>
	<path fill="#0078FF" d="M127.932,88.218c0.058,0.034,0.183,0.069,0.374,0.104s0.42,0.041,0.687,0.018
		c0.545-0.046,0.962-0.249,1.252-0.607c0.29-0.357,0.435-0.801,0.435-1.319l-3.93-9.81h2.799l2.521,7.723l2.469-7.723h2.817
		l-4.417,11.27c-0.348,0.848-0.771,1.521-1.27,2.02s-1.13,0.748-1.896,0.748c-0.278,0-0.6-0.018-0.965-0.045
		c-0.365-0.027-0.658-0.103-0.878-0.219v-2.156L127.932,88.218L127.932,88.218z"/>
	<path fill="#0078FF" d="M146.397,75.352v3.582h5.843v2.141h-5.843v5.857h-2.521V73.107h9.581v2.242h-7.06V75.352z"/>
	<path fill="#0078FF" d="M157.926,72.359v2.295h-2.974v-2.295H157.926z M155.178,86.932V76.689h2.521v10.24h-2.521V86.932z"/>
	<path fill="#0078FF" d="M169.993,86.932h-2.47v-6.156c0-0.254-0.043-0.512-0.131-0.771c-0.086-0.26-0.222-0.487-0.398-0.688
		c-0.182-0.194-0.406-0.356-0.68-0.484c-0.272-0.128-0.594-0.189-0.965-0.189c-0.269,0-0.526,0.049-0.781,0.146
		c-0.256,0.099-0.481,0.237-0.68,0.418c-0.197,0.18-0.354,0.396-0.471,0.649c-0.113,0.256-0.174,0.539-0.174,0.854v6.226h-2.559
		v-10.33h2.539v1.912c0.045-0.269,0.168-0.523,0.364-0.772s0.443-0.472,0.738-0.661c0.296-0.189,0.62-0.342,0.976-0.452
		c0.354-0.108,0.715-0.165,1.086-0.165c0.486,0,0.951,0.088,1.394,0.262c0.44,0.174,0.819,0.429,1.146,0.758
		c0.323,0.33,0.582,0.734,0.772,1.218c0.19,0.479,0.286,1.034,0.286,1.659v6.572h0.005v-0.004H169.993z"/>
	<path fill="#0078FF" d="M176.757,76.463c0.812,0,1.53,0.141,2.156,0.418s1.153,0.657,1.582,1.139
		c0.429,0.482,0.756,1.043,0.981,1.688c0.227,0.646,0.34,1.33,0.34,2.062c0,0.754-0.125,1.455-0.375,2.104
		c-0.248,0.647-0.596,1.212-1.043,1.688c-0.445,0.477-0.979,0.848-1.602,1.111s-1.302,0.396-2.043,0.396
		c-0.775,0-1.479-0.133-2.096-0.396c-0.62-0.266-1.15-0.638-1.594-1.111c-0.438-0.477-0.776-1.037-1.018-1.688
		c-0.236-0.646-0.355-1.353-0.355-2.104c0-0.729,0.121-1.416,0.365-2.062s0.586-1.205,1.025-1.688
		c0.439-0.479,0.975-0.858,1.6-1.139C175.313,76.604,176.003,76.463,176.757,76.463z M176.757,85.141
		c0.417,0,0.794-0.088,1.13-0.263c0.336-0.174,0.62-0.412,0.854-0.715c0.229-0.302,0.409-0.659,0.538-1.071
		c0.128-0.412,0.188-0.857,0.188-1.334c0-0.465-0.058-0.9-0.174-1.308c-0.114-0.406-0.286-0.765-0.513-1.072
		s-0.508-0.549-0.846-0.724c-0.336-0.174-0.729-0.262-1.183-0.262c-0.478,0-0.881,0.088-1.218,0.262
		c-0.336,0.175-0.617,0.416-0.844,0.724c-0.229,0.31-0.394,0.666-0.496,1.072c-0.104,0.407-0.155,0.843-0.155,1.308
		c0,0.488,0.062,0.938,0.185,1.352c0.121,0.412,0.295,0.771,0.521,1.072c0.229,0.303,0.507,0.537,0.844,0.705
		C175.928,85.057,176.314,85.141,176.757,85.141z"/>
	<path fill="#0078FF" d="M186.459,84.757c0.128,0.14,0.296,0.222,0.505,0.244c0.208,0.022,0.42,0.022,0.634,0
		c0.215-0.022,0.418-0.067,0.609-0.131c0.189-0.063,0.339-0.113,0.443-0.147v1.791c-0.197,0.139-0.412,0.246-0.646,0.321
		s-0.449,0.131-0.658,0.165c-0.244,0.047-0.486,0.068-0.73,0.068c-0.395,0-0.738-0.039-1.034-0.12s-0.552-0.188-0.765-0.322
		c-0.215-0.133-0.396-0.286-0.539-0.46c-0.146-0.174-0.268-0.354-0.356-0.539c-0.209-0.418-0.319-0.898-0.331-1.443V73.107h2.573
		c0,0.438,0.003,1.006,0.009,1.692c0.006,0.689,0.012,1.429,0.018,2.208c0.006,0.782,0.015,1.573,0.021,2.374
		c0.006,0.802,0.009,1.532,0.009,2.199s0,1.228,0,1.678c0,0.452,0,0.722,0,0.802c0,0.067,0.014,0.174,0.034,0.313
		S186.343,84.643,186.459,84.757z"/>
	<path fill="#0078FF" d="M194.109,76.463c0.812,0,1.531,0.141,2.156,0.418c0.627,0.277,1.151,0.657,1.582,1.139
		c0.43,0.482,0.756,1.043,0.98,1.688s0.339,1.33,0.339,2.062c0,0.754-0.125,1.455-0.374,2.104s-0.598,1.212-1.043,1.688
		c-0.443,0.477-0.979,0.848-1.602,1.111c-0.621,0.264-1.303,0.396-2.043,0.396c-0.775,0-1.477-0.133-2.096-0.396
		c-0.621-0.266-1.15-0.638-1.592-1.111c-0.439-0.477-0.779-1.037-1.018-1.688c-0.237-0.646-0.356-1.353-0.356-2.104
		c0-0.729,0.122-1.416,0.365-2.062s0.586-1.205,1.026-1.688c0.438-0.479,0.974-0.858,1.6-1.139
		C192.667,76.604,193.355,76.463,194.109,76.463z M194.109,85.141c0.418,0,0.795-0.088,1.131-0.263
		c0.336-0.174,0.619-0.412,0.853-0.715c0.231-0.302,0.411-0.659,0.539-1.071c0.127-0.412,0.19-0.857,0.19-1.334
		c0-0.465-0.059-0.9-0.174-1.308c-0.115-0.406-0.287-0.765-0.516-1.072c-0.226-0.308-0.507-0.549-0.844-0.724
		c-0.336-0.174-0.729-0.262-1.184-0.262c-0.477,0-0.881,0.088-1.219,0.262c-0.336,0.175-0.617,0.416-0.843,0.724
		c-0.228,0.31-0.392,0.666-0.496,1.072c-0.104,0.407-0.155,0.843-0.155,1.308c0,0.488,0.063,0.938,0.185,1.352
		c0.122,0.412,0.296,0.771,0.521,1.072c0.229,0.303,0.508,0.537,0.844,0.705C193.281,85.057,193.669,85.141,194.109,85.141z"/>
	<path fill="#0078FF" d="M206.316,84.409c1.519,0,2.709,0.247,3.572,0.739c0.861,0.492,1.295,1.22,1.295,2.183
		c0,0.532-0.162,0.996-0.485,1.392c-0.325,0.396-0.755,0.721-1.287,0.981c-0.533,0.26-1.146,0.458-1.834,0.591
		c-0.69,0.135-1.4,0.2-2.132,0.2c-0.846,0-1.594-0.069-2.241-0.209c-0.649-0.14-1.197-0.327-1.644-0.563
		c-0.447-0.238-0.785-0.509-1.021-0.81c-0.229-0.302-0.351-0.615-0.351-0.938c0-0.371,0.078-0.67,0.236-0.896
		c0.155-0.228,0.332-0.402,0.529-0.53c0.221-0.139,0.475-0.23,0.766-0.277c-0.244-0.114-0.459-0.254-0.645-0.416
		c-0.162-0.141-0.307-0.314-0.436-0.529c-0.127-0.215-0.19-0.475-0.19-0.773c0-0.336,0.053-0.615,0.157-0.844
		c0.104-0.227,0.242-0.42,0.416-0.582c0.175-0.162,0.375-0.299,0.601-0.409c0.228-0.108,0.461-0.211,0.704-0.304
		c-0.465-0.303-0.825-0.667-1.087-1.098c-0.261-0.43-0.392-0.916-0.392-1.461c0-0.558,0.118-1.045,0.354-1.47
		c0.235-0.423,0.563-0.772,0.979-1.053c0.418-0.276,0.904-0.489,1.461-0.634c0.559-0.146,1.152-0.219,1.791-0.219
		c0.729,0,1.383,0.084,1.957,0.252c0.572,0.168,1.068,0.438,1.485,0.81c0.022-0.093,0.056-0.187,0.097-0.276
		c0.039-0.095,0.09-0.187,0.146-0.279c0.141-0.241,0.311-0.441,0.514-0.601c0.203-0.155,0.399-0.276,0.592-0.364
		c0.191-0.086,0.367-0.146,0.529-0.184c0.162-0.033,0.278-0.059,0.348-0.068c-0.012,0.35-0.018,0.694-0.018,1.043
		c0,0.35,0,0.703,0,1.063c-0.093-0.012-0.212-0.012-0.355,0c-0.146,0.012-0.312,0.047-0.494,0.104
		c-0.15,0.06-0.28,0.121-0.393,0.189c-0.111,0.068-0.201,0.134-0.271,0.189c0.07,0.104,0.146,0.236,0.229,0.399
		c0.08,0.162,0.146,0.354,0.189,0.573c0,0.047,0.006,0.1,0.018,0.154c0,0.061,0.004,0.119,0.01,0.185s0.01,0.125,0.01,0.185
		c0,0.531-0.118,1.008-0.355,1.426c-0.234,0.418-0.563,0.772-0.98,1.068c-0.416,0.297-0.903,0.521-1.461,0.68
		c-0.556,0.156-1.152,0.232-1.791,0.232c-0.371,0-0.701-0.025-0.989-0.076c-0.29-0.054-0.574-0.113-0.853-0.185
		c-0.023,0-0.082,0.012-0.177,0.035c-0.093,0.022-0.187,0.055-0.276,0.096c-0.093,0.04-0.177,0.095-0.252,0.156
		c-0.074,0.063-0.113,0.142-0.113,0.233c0,0.289,0.313,0.512,0.938,0.66C204.35,84.332,205.215,84.409,206.316,84.409z
		 M205.518,88.896c1.078,0,1.908-0.123,2.494-0.365c0.586-0.243,0.879-0.539,0.879-0.887c0-0.177-0.082-0.336-0.244-0.487
		c-0.162-0.15-0.392-0.283-0.688-0.399c-0.295-0.115-0.65-0.206-1.068-0.27c-0.418-0.064-0.875-0.096-1.373-0.096
		c-0.558,0-1.047,0.012-1.471,0.032c-0.423,0.023-0.773,0.078-1.052,0.165c-0.279,0.09-0.49,0.217-0.636,0.385
		c-0.146,0.168-0.217,0.392-0.217,0.67c0,0.348,0.271,0.644,0.814,0.887C203.504,88.773,204.357,88.896,205.518,88.896z
		 M205.445,77.576c-0.301,0-0.572,0.061-0.815,0.183c-0.243,0.121-0.452,0.287-0.626,0.495c-0.174,0.209-0.309,0.452-0.4,0.73
		c-0.092,0.275-0.139,0.574-0.139,0.887s0.043,0.607,0.131,0.887c0.086,0.279,0.211,0.521,0.373,0.73s0.368,0.373,0.617,0.494
		c0.249,0.123,0.536,0.184,0.859,0.184c0.303,0,0.574-0.061,0.818-0.184c0.241-0.121,0.449-0.285,0.625-0.494
		c0.174-0.209,0.309-0.452,0.398-0.73c0.092-0.277,0.139-0.572,0.139-0.887c0-0.313-0.043-0.607-0.13-0.887
		c-0.087-0.28-0.218-0.521-0.394-0.73c-0.174-0.208-0.383-0.374-0.627-0.495C206.038,77.637,205.76,77.576,205.445,77.576z"/>
	<path fill="#0078FF" d="M213.045,88.218c0.059,0.034,0.184,0.069,0.374,0.104s0.42,0.041,0.687,0.018
		c0.545-0.046,0.963-0.249,1.252-0.607c0.291-0.357,0.438-0.801,0.438-1.319l-3.932-9.81h2.802l2.521,7.723l2.472-7.723h2.813
		l-4.414,11.27c-0.35,0.848-0.771,1.521-1.271,2.02s-1.132,0.748-1.896,0.748c-0.279,0-0.602-0.018-0.967-0.045
		c-0.363-0.027-0.656-0.103-0.878-0.219L213.045,88.218L213.045,88.218z"/>
</g>
<g>
	<path fill="#0078FF" d="M51.507,6.767c2.442,0,4.855,0.21,7.237,0.603c2.411,0.392,4.764,0.995,7.055,1.748
		c2.292,0.784,4.524,1.749,6.665,2.895c2.141,1.146,4.19,2.442,6.12,3.919c1.93,1.476,3.74,3.106,5.398,4.884
		c1.658,1.779,3.166,3.679,4.523,5.699c1.356,2.02,2.533,4.131,3.559,6.362c0.994,2.202,1.839,4.493,2.473,6.844l-21.498,5.818
		c-0.302-1.176-0.723-2.322-1.236-3.407c-0.512-1.115-1.084-2.171-1.779-3.166c-0.664-0.995-1.417-1.96-2.262-2.834
		c-0.843-0.875-1.719-1.689-2.683-2.443c-0.964-0.723-1.99-1.387-3.044-1.96c-1.085-0.574-2.171-1.056-3.347-1.448
		c-1.146-0.392-2.322-0.694-3.528-0.874c-1.207-0.211-2.412-0.302-3.619-0.302L51.507,6.767L51.507,6.767L51.507,6.767z"/>
	<path fill="#3393FF" d="M93.899,37.552c0.754,2.322,1.297,4.673,1.658,7.085c0.362,2.412,0.543,4.824,0.513,7.267
		c-0.03,2.441-0.272,4.854-0.694,7.234s-1.056,4.733-1.84,7.025c-0.814,2.292-1.809,4.493-2.955,6.634
		c-1.176,2.142-2.501,4.16-4.01,6.06c-1.508,1.899-3.136,3.68-4.945,5.338c-1.78,1.658-3.709,3.136-5.729,4.463l-12.18-18.665
		c1.024-0.664,1.959-1.418,2.865-2.231c0.904-0.813,1.719-1.719,2.473-2.652c0.753-0.963,1.417-1.959,1.99-3.045
		c0.573-1.056,1.084-2.17,1.476-3.315s0.724-2.322,0.935-3.526c0.211-1.209,0.332-2.412,0.332-3.619
		c0.03-1.208-0.062-2.413-0.242-3.62c-0.181-1.207-0.451-2.381-0.843-3.527L93.899,37.552L93.899,37.552z"/>
	<path fill="#59A7FF" d="M77.708,87.393c-1.96,1.418-4.04,2.685-6.211,3.77s-4.432,1.988-6.754,2.714
		c-2.322,0.724-4.673,1.235-7.085,1.599c-2.412,0.33-4.825,0.481-7.267,0.422c-2.442-0.062-4.855-0.33-7.236-0.783
		c-2.381-0.452-4.734-1.115-6.995-1.932c-2.292-0.844-4.493-1.867-6.603-3.045c-2.11-1.205-4.131-2.563-6-4.07l13.99-17.336
		c0.935,0.754,1.96,1.447,3.014,2.049c1.056,0.604,2.171,1.117,3.287,1.539c1.146,0.423,2.322,0.754,3.498,0.965
		c1.207,0.24,2.412,0.361,3.619,0.392s2.412-0.03,3.619-0.21c1.207-0.181,2.382-0.424,3.558-0.783
		c1.145-0.363,2.291-0.814,3.377-1.356c1.084-0.544,2.11-1.177,3.106-1.899L77.708,87.393L77.708,87.393z"/>
	<path fill="#7FBBFF" d="M25.334,87.393c-1.96-1.416-3.799-3.015-5.519-4.732c-1.719-1.721-3.255-3.59-4.672-5.577
		c-1.417-1.99-2.653-4.071-3.709-6.272s-1.93-4.432-2.623-6.783c-0.694-2.323-1.207-4.705-1.507-7.116
		c-0.302-2.412-0.422-4.823-0.331-7.266c0.09-2.443,0.392-4.824,0.874-7.206c0.482-2.381,1.146-4.704,2.021-6.995l20.835,7.93
		c-0.422,1.146-0.784,2.291-1.025,3.499c-0.241,1.176-0.392,2.381-0.423,3.618c-0.061,1.207,0,2.411,0.151,3.618
		c0.151,1.207,0.392,2.383,0.754,3.559c0.361,1.178,0.784,2.291,1.327,3.378s1.146,2.142,1.84,3.136
		c0.694,0.994,1.477,1.93,2.322,2.772c0.844,0.875,1.779,1.659,2.743,2.382L25.334,87.393L25.334,87.393z"/>
	<path fill="#A6D0FF" d="M9.143,37.552c0.723-2.232,1.628-4.373,2.684-6.452c1.056-2.079,2.292-4.07,3.647-5.97
		c1.387-1.899,2.895-3.678,4.553-5.306c1.658-1.658,3.437-3.166,5.306-4.552c1.899-1.387,3.889-2.593,5.97-3.648
		c2.082-1.054,4.221-1.96,6.452-2.683c2.231-0.724,4.493-1.267,6.785-1.628c2.322-0.361,4.644-0.543,6.964-0.543v22.282
		c-1.176,0-2.322,0.09-3.499,0.272c-1.145,0.181-2.291,0.451-3.406,0.814c-1.115,0.363-2.202,0.814-3.227,1.328
		c-1.056,0.543-2.02,1.145-2.986,1.839c-0.935,0.694-1.839,1.448-2.652,2.261s-1.598,1.72-2.261,2.653
		c-0.694,0.935-1.297,1.93-1.84,2.985c-0.543,1.056-0.964,2.11-1.328,3.227L9.143,37.552L9.143,37.552z"/>
</g>
<g>
	<path fill="#FFFFFF" d="M246.997,3.557h3.953c1.801,0,3.109,0.256,3.922,0.769c0.813,0.513,1.222,1.328,1.222,2.445
		c0,0.759-0.18,1.381-0.535,1.868c-0.356,0.487-0.83,0.779-1.421,0.877v0.087c0.805,0.18,1.387,0.516,1.742,1.008
		c0.356,0.493,0.534,1.146,0.534,1.963c0,1.159-0.418,2.062-1.255,2.71c-0.838,0.648-1.973,0.973-3.41,0.973h-4.752V3.557z
		 M249.69,8.587h1.563c0.729,0,1.258-0.113,1.585-0.339c0.328-0.226,0.492-0.599,0.492-1.121c0-0.486-0.18-0.835-0.535-1.047
		c-0.356-0.211-0.92-0.317-1.69-0.317h-1.415V8.587z M249.69,10.725v3.31h1.755c0.741,0,1.288-0.142,1.642-0.426
		c0.354-0.283,0.53-0.718,0.53-1.303c0-1.054-0.753-1.581-2.26-1.581H249.69z"/>
	<path fill="#FFFFFF" d="M263.139,16.433c-1.563,0-2.785-0.431-3.666-1.294c-0.881-0.863-1.32-2.085-1.32-3.667
		c0-1.627,0.407-2.885,1.22-3.775c0.814-0.889,1.938-1.333,3.376-1.333c1.373,0,2.441,0.391,3.205,1.173
		c0.766,0.782,1.147,1.862,1.147,3.24v1.286h-6.265c0.03,0.753,0.252,1.341,0.67,1.764c0.417,0.423,1.002,0.634,1.755,0.634
		c0.585,0,1.138-0.061,1.659-0.182c0.521-0.122,1.065-0.316,1.634-0.583v2.05c-0.464,0.232-0.96,0.404-1.486,0.517
		S263.898,16.433,263.139,16.433z M262.766,8.249c-0.563,0-1.003,0.178-1.321,0.535c-0.318,0.356-0.501,0.861-0.547,1.516h3.719
		c-0.013-0.654-0.183-1.16-0.513-1.516C263.773,8.426,263.326,8.249,262.766,8.249z"/>
	<path fill="#FFFFFF" d="M273.347,14.321c0.464,0,1.02-0.101,1.669-0.304v1.972c-0.661,0.295-1.473,0.443-2.433,0.443
		c-1.061,0-1.833-0.268-2.316-0.804c-0.482-0.536-0.726-1.339-0.726-2.411V8.536h-1.268V7.415l1.46-0.886l0.764-2.05h1.694v2.067
		h2.72v1.99h-2.72v4.683c0,0.376,0.104,0.655,0.317,0.833C272.72,14.232,272.999,14.321,273.347,14.321z"/>
	<path fill="#FFFFFF" d="M283.146,16.259l-0.513-1.321h-0.069c-0.445,0.562-0.904,0.951-1.377,1.169
		c-0.473,0.217-1.087,0.326-1.847,0.326c-0.933,0-1.667-0.266-2.201-0.8c-0.536-0.532-0.804-1.291-0.804-2.276
		c0-1.031,0.36-1.791,1.082-2.28c0.721-0.49,1.808-0.76,3.262-0.813l1.686-0.052V9.787c0-0.985-0.504-1.478-1.512-1.478
		c-0.777,0-1.689,0.235-2.737,0.704l-0.878-1.79c1.118-0.584,2.358-0.877,3.719-0.877c1.304,0,2.303,0.284,2.998,0.852
		c0.694,0.568,1.042,1.431,1.042,2.589v6.472H283.146z M282.365,11.758l-1.025,0.035c-0.771,0.023-1.343,0.163-1.721,0.417
		c-0.376,0.255-0.564,0.643-0.564,1.164c0,0.748,0.43,1.121,1.286,1.121c0.613,0,1.104-0.177,1.473-0.53
		c0.368-0.354,0.552-0.822,0.552-1.408V11.758z"/>
</g>
</svg>
